<?xml version="1.0" encoding="UTF-8" standalone="no"?>
<!-- Created with Inkscape (http://www.inkscape.org/) -->

<svg
   xmlns:dc="http://purl.org/dc/elements/1.1/"
   xmlns:cc="http://creativecommons.org/ns#"
   xmlns:rdf="http://www.w3.org/1999/02/22-rdf-syntax-ns#"
   xmlns:svg="http://www.w3.org/2000/svg"
   xmlns="http://www.w3.org/2000/svg"
   xmlns:sodipodi="http://sodipodi.sourceforge.net/DTD/sodipodi-0.dtd"
   xmlns:inkscape="http://www.inkscape.org/namespaces/inkscape"
   width="1000"
   height="500"
   id="svg2"
   version="1.1"
   inkscape:version="0.48.3.1 r9886"
   sodipodi:docname="Nou document 1">
  <defs
     id="defs4" />
  <sodipodi:namedview
     id="base"
     pagecolor="#ffffff"
     bordercolor="#666666"
     borderopacity="1.0"
     inkscape:pageopacity="0.0"
     inkscape:pageshadow="2"
     inkscape:zoom="0.7"
     inkscape:cx="544.55498"
     inkscape:cy="420.40934"
     inkscape:document-units="px"
     inkscape:current-layer="capa1"
     showgrid="false"
     inkscape:window-width="1231"
     inkscape:window-height="1000"
     inkscape:window-x="49"
     inkscape:window-y="24"
     inkscape:window-maximized="1" />
  <metadata
     id="metadata7">
    <rdf:RDF>
      <cc:Work
         rdf:about="">
        <dc:format>image/svg+xml</dc:format>
        <dc:type
           rdf:resource="http://purl.org/dc/dcmitype/StillImage" />
        <dc:title></dc:title>
      </cc:Work>
    </rdf:RDF>
  </metadata>
  <g
     inkscape:label="Capa 1"
     inkscape:groupmode="layer"
     id="capa1"
     transform="translate(0,-552.36218)">
    <text
       xml:space="preserve"
       style="font-size:40px;font-style:normal;font-variant:normal;font-weight:normal;font-stretch:normal;line-height:125%;letter-spacing:0px;word-spacing:0px;fill:#000000;fill-opacity:1;stroke:none;font-family:Magic Wix Script;-inkscape-font-specification:Magic Wix Script"
       x="13.567821"
       y="226.0574"
       id="text2989"
       sodipodi:linespacing="125%"><tspan
         sodipodi:role="line"
         id="tspan2991"
         x="13.567821"
         y="226.0574"></tspan></text>
    <g
       id="g3769"
       transform="translate(-54.285714,232.85714)">
      <g
         style="font-size:400px;font-style:normal;font-variant:normal;font-weight:normal;font-stretch:normal;line-height:125%;letter-spacing:0px;word-spacing:0px;fill:#e80080;fill-opacity:1;stroke:none;font-family:Magic Wix Script;-inkscape-font-specification:Magic Wix Script"
         id="text2993">
        <path
           d="m 234.24819,375.28052 1.17188,0 c 1.95295,3.6e-4 3.64566,0.5863 5.07812,1.75781 l 0,0.58594 c -1.7e-4,2.60452 -1.43246,6.05504 -4.29687,10.35156 -2.34392,4.81805 -8.26839,14.19304 -17.77344,28.125 -10.2866,16.27635 -21.4194,40.75549 -33.39844,73.4375 -4.68761,15.88565 -7.03136,24.6096 -7.03125,26.17188 l 0,0.78125 0,1.95312 0.19531,0 25.78125,-36.32812 c 11.45819,-14.19244 25.19515,-30.01274 41.21094,-47.46094 13.41127,-12.6299 21.02845,-19.27051 22.85156,-19.92188 13.67166,-9.76529 24.15342,-14.6481 31.44532,-14.64843 4.03622,3.3e-4 6.05445,2.01856 6.05468,6.05468 -2.3e-4,1.30242 -1.82315,6.70606 -5.46875,16.21094 -7.68251,19.66175 -13.28147,35.41695 -16.79687,47.26563 -4.5575,17.44816 -7.87781,31.90127 -9.96094,43.35937 -0.78145,2.99501 -1.17208,5.01324 -1.17187,6.05469 l 0,1.75781 c 7.29145,-9.50498 13.28103,-16.92685 17.96875,-22.26562 11.06747,-12.89038 18.68465,-21.48412 22.85156,-25.78125 11.45807,-11.84869 23.11171,-22.91638 34.96094,-33.20313 12.4997,-10.80698 24.86948,-20.24708 37.10937,-28.32031 13.28092,-8.333 24.47883,-14.583 33.59375,-18.75 23.0465,-10.80694 39.77826,-16.21058 50.19531,-16.21094 3.64543,3.6e-4 6.05428,0.78161 7.22657,2.34375 0.65063,0.6514 0.97615,1.30244 0.97656,1.95313 l 0,0.97656 c -4.1e-4,2.86493 -3.64624,7.35712 -10.9375,13.47656 -6.12019,5.85971 -13.60716,13.47689 -22.46094,22.85156 -11.06807,11.06802 -23.50296,24.67478 -37.30469,40.82032 -6.25033,6.7711 -14.38834,16.73203 -24.41406,29.88281 -15.75551,19.79189 -29.36226,38.60698 -40.82031,56.44531 -16.2763,24.47933 -31.44556,49.67462 -45.50781,75.58594 -5.8596,12.63031 -10.02626,23.50269 -12.5,32.61719 l -0.19532,1.36718 0.39063,0 c 12.62998,-11.45824 22.98153,-20.18219 31.05469,-26.17187 20.83306,-14.58321 37.82523,-25.19518 50.97656,-31.83594 9.24448,-4.29673 17.05698,-6.44517 23.4375,-6.44531 3.12467,0.13035 4.68717,0.71629 4.6875,1.75781 -3.3e-4,1.17202 -3.38574,4.1017 -10.15625,8.78906 -27.34404,17.31783 -45.7685,29.29698 -55.27344,35.9375 -8.07317,5.72926 -17.18774,12.89072 -27.34375,21.48438 -16.01584,14.97402 -26.30229,25.58599 -30.85937,31.83594 -11.58874,14.06253 -21.22414,27.08335 -28.90625,39.0625 -3.25538,5.85937 -6.96632,8.78906 -11.13282,8.78906 l -0.97656,0 c -5.07828,0 -10.1564,-7.22656 -15.23437,-21.67969 -7.29181,-22.78641 -10.93764,-54.68742 -10.9375,-95.70312 l 0.58593,-26.75782 c -1.3e-4,-0.91131 -0.19544,-1.36704 -0.58593,-1.36718 -16.53658,14.58346 -26.10688,23.43762 -28.71094,26.5625 -14.58343,15.75531 -25.1954,28.51571 -31.83594,38.28125 -18.75005,26.43234 -34.70056,50.84638 -47.851561,73.24218 -2.343775,3.77605 -4.817731,5.66407 -7.421875,5.66407 l -0.585937,0 c -4.947931,0 -9.179698,-12.17447 -12.695313,-36.52344 -0.911464,-8.72391 -1.367193,-17.70828 -1.367187,-26.95313 -6e-6,-32.55198 5.598947,-68.81497 16.796875,-108.78906 5.59893,-18.35918 12.239548,-35.74198 19.921878,-52.14844 10.67703,-23.30704 24.34889,-46.419 41.01562,-69.33593 5.72908,-7.55179 13.9322,-16.92678 24.60938,-28.125 13.02071,-12.10904 21.61445,-19.4007 25.78125,-21.875 15.88526,-11.32777 27.21338,-16.99183 33.98437,-16.99219"
           id="path3776"
           inkscape:connector-curvature="0" />
        <path
           d="m 544.59975,439.14771 0.39063,0 0.58594,0.58593 -10.74219,13.67188 c -2.99498,4.03674 -4.49238,7.22684 -4.49219,9.57031 l 0,1.17188 c -1.9e-4,3.25547 4.23158,5.3388 12.69531,6.25 9.89563,2.08359 36.4581,4.03672 79.6875,5.85937 l 9.57032,-0.19531 0.39062,0 c 6.37991,0.13047 9.57001,0.52109 9.57031,1.17187 l 0,0.39063 -0.19531,0 0,0.19531 -18.94531,0.19531 -7.61719,0 c -32.94295,0.91172 -52.92991,2.08359 -59.96094,3.51563 -12.76061,1.69296 -22.85175,3.51587 -30.27343,5.46875 -13.15122,3.90649 -22.72152,7.74764 -28.71094,11.52344 -4.81786,2.21377 -12.36994,7.68252 -22.65625,16.40625 -5.8595,5.98979 -9.89596,9.76583 -12.10938,11.32812 l -0.78125,0.19531 -0.19531,0 -0.39062,-0.39062 c -1.2e-4,-0.91125 2.86446,-4.49197 8.59375,-10.74219 2.60403,-3.25498 4.68736,-7.94248 6.25,-14.0625 l 0.19531,-2.53906 0,-0.78125 c -1.4e-4,-5.98934 -4.42721,-10.156 -13.28125,-12.5 -6.11991,-1.04142 -11.91417,-1.56225 -17.38281,-1.5625 -2.9949,2.5e-4 -8.26833,0.26067 -15.82032,0.78125 l -0.19531,-0.19531 0,-0.39063 c -9e-5,-0.52058 3.97126,-1.17162 11.91406,-1.95312 13.54156,-1.95287 24.80457,-4.23152 33.78907,-6.83594 11.19777,-2.99453 22.13526,-6.77057 32.8125,-11.32813 8.07274,-3.38514 16.01544,-7.87732 23.82812,-13.47656 8.33314,-7.29137 12.63001,-10.9372 12.89063,-10.9375 l 0.58593,-0.39062 m -95.11718,98.82812 c 4.81759,0.39082 7.22644,2.27884 7.22656,5.66406 -1.2e-4,3.2554 -4.94803,10.80748 -14.84375,22.65625 -19.40112,23.69807 -34.11465,43.35951 -44.14063,58.98438 -7.29171,11.84906 -12.43494,22.39592 -15.42968,31.64062 13.28119,-8.46345 22.00514,-14.19261 26.17187,-17.1875 23.56762,-18.61967 40.42958,-31.64049 50.58594,-39.0625 1.953,-1.30194 6.7056,-5.14308 14.25781,-11.52343 7.29153,-5.33839 12.04413,-8.00766 14.25781,-8.00782 1.30194,0.26058 1.95298,0.84651 1.95313,1.75782 -1.5e-4,3.77619 -4.94806,10.54701 -14.84375,20.3125 -4.81784,5.07825 -22.85167,21.48448 -54.10156,49.21875 -19.14069,16.66673 -32.42193,28.64588 -39.84375,35.9375 -19.01044,17.44794 -30.33855,27.40887 -33.98438,29.88281 -15.7552,12.5 -25.65102,19.14062 -29.6875,19.92187 l -0.19531,0 c -2.47393,-2.21354 -3.71091,-6.18489 -3.71094,-11.91406 3e-5,-14.97393 8.52867,-40.75516 25.58594,-77.34375 9.11458,-18.48948 21.15883,-38.08581 36.13281,-58.78906 5.07809,-7.29151 12.04423,-15.42953 20.89844,-24.41406 7.1614,-6.38004 13.6067,-11.19774 19.33594,-14.45313 7.68221,-4.42689 14.51814,-7.7472 20.50781,-9.96094 7.03115,-2.21334 11.65354,-3.32011 13.86719,-3.32031"
           id="path3778"
           inkscape:connector-curvature="0" />
        <path
           d="m 564.52163,535.24146 c 5.46861,2e-4 9.04933,1.17207 10.74219,3.51562 l 0.39062,1.36719 c -1.5e-4,2.08353 -6.96629,13.15122 -20.89844,33.20312 -5.33866,8.07308 -10.93761,18.29442 -16.79687,30.66407 l 0.19531,0 c 22.00508,-14.7134 37.82537,-24.67433 47.46094,-29.88282 40.36438,-24.47898 67.90342,-36.71855 82.61719,-36.71875 l 1.95312,0 c 5.72892,2e-4 9.70027,2.34395 11.91406,7.03125 0.52058,1.82311 0.781,3.38561 0.78125,4.6875 -2.5e-4,9.6356 -7.42212,23.76319 -22.26562,42.38282 -27.73458,36.45844 -41.60176,55.01311 -41.60156,55.66406 -3.12519,4.81779 -4.68769,7.68237 -4.6875,8.59375 l -0.59387,0.78918 c 56.54298,-33.50352 133.29781,-71.13194 155.64173,-72.0132 1.49912,1.32597 3.38106,4.3345 3.64178,5.11561 -6.50344,-1.49835 -67.28739,29.67996 -110.64277,59.07716 l -75.58594,52.34375 c -37.2397,24.08855 -59.3751,36.13281 -66.40625,36.13281 l -0.97656,0 c -3.51571,0 -5.59904,-3.51562 -6.25,-10.54687 l 0,-2.73438 c -8e-5,-12.10935 7.29157,-31.83589 21.875,-59.17969 14.84363,-21.8749 29.55716,-41.27593 44.14063,-58.20312 l -0.19532,0 c -20.57304,12.76053 -39.06261,24.8699 -55.46875,36.32812 -12.8907,9.76571 -24.28392,19.40112 -34.17968,28.90625 -19.14067,17.9688 -37.69534,36.32816 -55.66407,55.07813 -6.77083,6.38021 -12.23957,9.57031 -16.40625,9.57031 l -0.58593,0 c -4.03645,0 -6.70572,-2.66927 -8.00782,-8.00781 l -0.39062,-4.49219 0,-2.53906 c 2e-5,-15.10414 8.13803,-39.45307 24.41406,-73.04688 10.02603,-19.40093 21.22393,-36.78373 33.59375,-52.14843 6.901,-8.33319 15.55984,-17.25245 25.97656,-26.75782 11.71868,-9.76544 20.18221,-15.88523 25.39063,-18.35937 18.22906,-10.54668 33.85404,-15.82011 46.875,-15.82031"
           id="path3780"
           inkscape:connector-curvature="0"
           sodipodi:nodetypes="cccccccccccccccccccsscsccccccssccsccccc" />
      </g>
      <g
         style="font-size:1200px;font-style:normal;font-variant:normal;font-weight:normal;font-stretch:normal;line-height:125%;letter-spacing:0px;word-spacing:0px;fill:#e80080;fill-opacity:1;stroke:none;font-family:Magic Wix Script;-inkscape-font-specification:Magic Wix Script"
         id="text3765">
        <path
           d="m 1013.6091,350.04236 0,0 c 9.3745,9.8e-4 18.3588,8.98534 26.9531,26.95312 2.7338,8.20407 4.101,16.6025 4.1016,25.19532 l 0,3.51562 c -6e-4,15.62591 -4.6881,33.39933 -14.0625,53.32031 -3.9068,7.03212 -8.7896,14.6493 -14.6485,22.85157 -5.8599,8.20396 -14.063,17.96958 -24.60936,29.29687 -8.98484,8.98518 -15.62546,15.03987 -19.92187,18.16406 -8.5942,6.64142 -17.96919,13.28204 -28.125,19.92188 -20.31291,12.50077 -41.60196,22.46169 -63.86719,29.88281 -10.15661,3.51637 -23.82847,7.03199 -41.01562,10.54688 -14.06282,2.34448 -24.02375,3.51636 -29.88282,3.51562 7.42157,10.5476 19.53094,24.61009 36.32813,42.1875 14.06215,13.67256 24.21839,23.04755 30.46875,28.125 15.23399,12.11003 26.36679,19.92252 33.39844,23.4375 14.06208,7.42251 24.02301,13.08657 29.88281,16.99219 7.03081,4.29749 13.67143,9.1803 19.92187,14.64844 6.64017,6.2506 9.96048,12.30528 9.96094,18.16406 -4.6e-4,11.71933 -10.1567,19.92245 -30.46875,24.60937 -6.64104,1.17245 -13.28166,1.75838 -19.92187,1.75782 -28.12538,5.6e-4 -55.27379,-9.56974 -81.44532,-28.71094 -18.35968,-14.45252 -31.25029,-32.22594 -38.67187,-53.32031 -2.73466,-7.0306 -5.66435,-17.96809 -8.78906,-32.8125 -1.17216,-6.24932 -2.34403,-15.81962 -3.51563,-28.71094 -0.3909,-7.03053 -0.97684,-10.93678 -1.75781,-11.71875 -2.34402,0.78197 -4.68777,2.73509 -7.03125,5.85937 l -7.03125,12.30469 c -6.25025,9.76632 -12.89087,24.61005 -19.92188,44.53125 -2.73461,6.64128 -5.46898,14.84439 -8.20312,24.60938 -5.07835,23.04748 -9.76585,37.30528 -14.0625,42.77343 -7.42209,10.93808 -18.16426,18.94589 -32.22656,24.02344 -5.46893,1.56307 -10.35174,2.34432 -14.64844,2.34375 -9.37516,5.7e-4 -18.55484,-2.92912 -27.53906,-8.78906 -8.98451,-6.64005 -13.4767,-15.62441 -13.47657,-26.95313 l 0,-2.34375 c -1.3e-4,-26.95249 24.41391,-60.15558 73.24219,-99.60937 17.96853,-14.45241 34.57008,-25.97584 49.80469,-34.57031 l 7.61719,-4.10157 0,0 c -8.98463,-9.37425 -15.82056,-17.57736 -20.50782,-24.60937 -9.37523,-12.49922 -16.01584,-23.04609 -19.92187,-31.64063 -4.68772,-9.37419 -9.1799,-23.63199 -13.47656,-42.77343 -2.34396,-10.93665 -3.51583,-20.89758 -3.51563,-29.88282 l 0,-2.34375 c -2e-4,-23.04598 8.0076,-45.31158 24.02344,-66.79687 3.51539,-5.46781 9.17945,-12.49905 16.99219,-21.09375 12.10912,-11.32715 22.85129,-16.99121 32.22656,-16.99219 6.64034,9.8e-4 12.10909,2.34473 16.40625,7.03125 3.1247,5.07909 4.6872,10.35252 4.6875,15.82031 l 0,4.6875 c -3e-4,12.11032 -1.75811,26.75874 -5.27344,43.94532 -3.12529,16.79776 -4.68779,40.82117 -4.6875,72.07031 -2.9e-4,23.43831 1.3669,48.43828 4.10156,75 10.9372,-7.81173 27.34344,-21.67891 49.21875,-41.60156 20.31214,-19.53043 37.89025,-37.49917 52.73438,-53.90625 25.39021,-27.34287 45.898,-50.78035 61.52344,-70.3125 8.98391,-10.15532 16.40578,-19.335 22.26562,-27.53907 6.24952,-9.37404 11.71826,-16.7959 16.40622,-22.26562 3.1245,-3.12402 6.4448,-4.68652 9.961,-4.6875 M 746.42157,490.08142 c -2.4e-4,14.84458 2.34351,28.90706 7.03125,42.1875 2.73413,7.81329 8.98412,18.36015 18.75,31.64063 l 5.85937,7.61718 -1.17187,-87.89062 0.58594,-5.27344 c -2.7e-4,-7.03039 -3.7112,-11.9132 -11.13282,-14.64844 -1.56275,8.7e-4 -2.73462,8.7e-4 -3.51562,0 -7.0315,8.7e-4 -11.9143,3.90711 -14.64844,11.71875 -1.17211,4.68835 -1.75805,9.57116 -1.75781,14.64844 m 73.82812,86.71875 0.58594,0 c 7.81218,7.5e-4 25.5856,-5.6633 53.32031,-16.99219 17.96837,-7.81172 33.78867,-16.21015 47.46094,-25.19531 6.64021,-4.6867 12.8902,-9.56951 18.75,-14.64844 9.37456,-8.59293 14.06206,-16.60073 14.0625,-24.02343 l 0,-1.75782 c -4.4e-4,-5.07728 -1.75825,-8.98353 -5.27344,-11.71875 -1.95356,-1.17102 -4.10199,-1.75696 -6.44531,-1.75781 -10.15667,8.5e-4 -23.82853,9.37584 -41.01562,28.125 -14.06288,14.06331 -25.00037,24.41486 -32.8125,31.05469 l -11.13282,9.375 c -14.45345,11.32889 -26.95344,20.50857 -37.5,27.53906 m -20.50781,37.5 0,0.58594 c -2.9e-4,8.59445 2.14815,20.5085 6.44531,35.74219 2.34346,7.42254 5.27314,14.84441 8.78907,22.26562 15.62468,30.46938 31.8356,45.70374 48.63281,45.70313 6.64026,6.1e-4 11.13245,-2.34314 13.47656,-7.03125 0.78088,-1.56188 1.17151,-3.12438 1.17188,-4.6875 -3.7e-4,-7.42125 -3.71131,-14.25718 -11.13282,-20.50782 -7.42222,-5.07747 -14.64878,-10.93684 -21.67968,-17.57812 -12.1097,-10.93683 -19.72688,-18.3587 -22.85157,-22.26563 -12.10967,-14.45242 -19.72685,-25.1946 -22.85156,-32.22656 m -114.84375,81.44531 0,0.58594 c -1.7e-4,5.86 3.71076,10.15687 11.13281,12.89063 l 2.92969,0.58593 c 7.03106,6.2e-4 12.89042,-6.83531 17.57813,-20.50781 9.37478,-23.43684 18.16383,-42.57744 26.36718,-57.42187 2.73414,-5.07743 6.64039,-10.74148 11.71875,-16.99219 l 0,0 c -9.37523,6.64133 -20.11741,14.84445 -32.22656,24.60937 -6.64083,5.46944 -12.5002,11.32881 -17.57812,17.57813 -9.37519,10.93816 -14.64862,17.9694 -15.82032,21.09375 -2.73455,7.42252 -4.10173,13.28189 -4.10156,17.57812"
           id="path3783"
           inkscape:connector-curvature="0" />
      </g>
    </g>
  </g>
</svg>
